<?xml version="1.0" standalone="no"?><!DOCTYPE svg PUBLIC "-//W3C//DTD SVG 1.1//EN" "http://www.w3.org/Graphics/SVG/1.1/DTD/svg11.dtd"><svg t="1634634781716" class="icon" viewBox="0 0 1024 1024" version="1.1" xmlns="http://www.w3.org/2000/svg" p-id="15653" xmlns:xlink="http://www.w3.org/1999/xlink" width="200" height="200"><defs><style type="text/css"></style></defs><path d="M449.045333 811.882667c34.816 10.368 94.805333-20.010667 142.954667-71.872 31.850667-34.069333 37.034667-43.690667 37.781333-45.909334-2.218667 0-8.149333 2.965333-13.333333 6.656-27.413333 23.701333-46.656 31.125333-59.989333 23.701334-25.941333-15.552-12.586667-88.874667-7.424-111.104 0.746667-4.437333 4.458667-13.333333 8.896-24.448 16.298667-41.472 49.621333-127.402667 14.08-143.701334-45.184-20.736-188.885333 83.712-190.378667 85.184-11.093333 8.149333-20.736 17.045333-20.736 19.264a18.816 18.816 0 0 0 9.621333 6.656 12.586667 12.586667 0 0 0 5.184 0.746667c25.173333 0 66.666667-29.632 67.413334-29.632 2.218667-2.218667 15.573333-11.84 21.482666-8.149333 2.965333 1.493333 3.712 5.184 2.965334 10.368a1667.904 1667.904 0 0 0-42.965334 256.298666c2.965333 12.586667 11.093333 21.482667 24.448 25.941334z m183.68-524.458667a69.44 69.44 0 0 0-31.082666-45.930667 72 72 0 0 0-40-11.84c-23.722667 0-47.424 11.84-60.757334 32.597334-22.208 33.322667-12.586667 78.506667 21.482667 100.736 33.344 22.229333 78.506667 12.586667 100.757333-21.482667 10.368-15.573333 14.08-34.816 9.6-54.08z" p-id="15654"></path></svg>