<?xml version="1.0" standalone="no"?><!DOCTYPE svg PUBLIC "-//W3C//DTD SVG 1.1//EN" "http://www.w3.org/Graphics/SVG/1.1/DTD/svg11.dtd"><svg t="1634633353470" class="icon" viewBox="0 0 1024 1024" version="1.1" xmlns="http://www.w3.org/2000/svg" p-id="10146" xmlns:xlink="http://www.w3.org/1999/xlink" width="200" height="200"><defs><style type="text/css"></style></defs><path d="M598.6 752c12.4-28.2 40.6-48 73.4-48s61 19.8 73.4 48H896c17.6 0 32 14.4 32 32s-14.4 32-32 32h-150.6c-12.4 28.2-40.6 48-73.4 48s-61-19.8-73.4-48H128c-17.6 0-32-14.4-32-32s14.4-32 32-32h470.6z m-320-272c12.4-28.2 40.6-48 73.4-48s61 19.8 73.4 48H896c17.6 0 32 14.4 32 32s-14.4 32-32 32H425.4c-12.4 28.2-40.6 48-73.4 48s-61-19.8-73.4-48H128c-17.6 0-32-14.4-32-32s14.4-32 32-32h150.6z m320-272c12.4-28.2 40.6-48 73.4-48s61 19.8 73.4 48H896c17.6 0 32 14.4 32 32s-14.4 32-32 32h-150.6c-12.4 28.2-40.6 48-73.4 48s-61-19.8-73.4-48H128c-17.6 0-32-14.4-32-32s14.4-32 32-32h470.6z" p-id="10147" fill="#000000"></path></svg>